<svg width="24" height="24" viewBox="0 0 24 24" fill="none" xmlns="http://www.w3.org/2000/svg">
<path fill-rule="evenodd" clip-rule="evenodd" d="M12 2.40002C12.3314 2.40002 12.6 2.66865 12.6 3.00002V11.4H21C21.3314 11.4 21.6 11.6687 21.6 12C21.6 12.3314 21.3314 12.6 21 12.6H12.6V21C12.6 21.3314 12.3314 21.6 12 21.6C11.6687 21.6 11.4 21.3314 11.4 21L11.4 12.6H3.00002C2.66865 12.6 2.40002 12.3314 2.40002 12C2.40002 11.6687 2.66865 11.4 3.00002 11.4H11.4L11.4 3.00002C11.4 2.66865 11.6687 2.40002 12 2.40002Z" fill="#FF3E5B"/>
</svg>
