<svg width="20" height="20" viewBox="0 0 20 20" fill="none" xmlns="http://www.w3.org/2000/svg">
<path fill-rule="evenodd" clip-rule="evenodd" d="M15.6711 3.16368L8.82705 10.1252L8.66577 11.6604L10.1173 11.2694L16.6823 4.59169C16.6929 4.5809 16.704 4.57059 16.7156 4.56081C16.8405 4.45489 16.9587 4.23838 16.9915 3.96346C17.0237 3.6934 16.9643 3.44173 16.8333 3.2704C16.7135 3.11376 16.5112 3.01572 16.2654 3.00165C16.0231 2.98778 15.8027 3.06016 15.6711 3.16368ZM16.3226 2.00328C16.7899 2.03003 17.2926 2.22479 17.6277 2.66299C17.9515 3.08651 18.04 3.61606 17.9845 4.08179C17.9305 4.53454 17.7317 4.99982 17.3811 5.30729L10.7351 12.0673C10.6728 12.1308 10.5946 12.1764 10.5087 12.1996L8.22244 12.8154C8.06333 12.8583 7.89331 12.82 7.76793 12.7131C7.64255 12.6061 7.57791 12.4443 7.59513 12.2804L7.85077 9.84699C7.86259 9.7345 7.91219 9.62935 7.99148 9.5487L14.9766 2.44365C14.9872 2.43286 14.9983 2.42256 15.0099 2.41277C15.3677 2.1095 15.861 1.97687 16.3226 2.00328ZM2 3.28989C2 3.01374 2.22386 2.78989 2.5 2.78989H9.84439C10.1205 2.78989 10.3444 3.01374 10.3444 3.28989C10.3444 3.56603 10.1205 3.78989 9.84439 3.78989H3V17H15.9703V10.0683C15.9703 9.79212 16.1942 9.56826 16.4703 9.56826C16.7464 9.56826 16.9703 9.79212 16.9703 10.0683V17.5C16.9703 17.7761 16.7464 18 16.4703 18H2.5C2.22386 18 2 17.7761 2 17.5V3.28989Z" fill="#FF3E5B"/>
</svg>
