<svg width="20" height="20" viewBox="0 0 20 20" fill="none" xmlns="http://www.w3.org/2000/svg">
<path fill-rule="evenodd" clip-rule="evenodd" d="M15.6711 3.16371L8.82705 10.1252L8.66577 11.6604L10.1173 11.2694L16.6823 4.59172C16.6929 4.58093 16.704 4.57062 16.7156 4.56084C16.8405 4.45492 16.9587 4.23841 16.9915 3.96349C17.0237 3.69344 16.9643 3.44176 16.8333 3.27043C16.7135 3.11379 16.5112 3.01575 16.2654 3.00168C16.0231 2.98781 15.8027 3.06019 15.6711 3.16371ZM16.3226 2.00332C16.7899 2.03006 17.2926 2.22482 17.6277 2.66302C17.9515 3.08655 18.04 3.61609 17.9845 4.08182C17.9305 4.53457 17.7317 4.99985 17.3811 5.30732L10.7351 12.0674C10.6728 12.1308 10.5946 12.1765 10.5087 12.1996L8.22244 12.8155C8.06333 12.8583 7.89331 12.82 7.76793 12.7131C7.64255 12.6062 7.57791 12.4443 7.59513 12.2804L7.85077 9.84702C7.86259 9.73453 7.91219 9.62938 7.99148 9.54873L14.9766 2.44368C14.9872 2.43289 14.9983 2.42259 15.0099 2.4128C15.3677 2.10953 15.861 1.9769 16.3226 2.00332ZM2 3.28992C2 3.01377 2.22386 2.78992 2.5 2.78992H9.84439C10.1205 2.78992 10.3444 3.01377 10.3444 3.28992C10.3444 3.56606 10.1205 3.78992 9.84439 3.78992H3V17H15.9703V10.0683C15.9703 9.79215 16.1942 9.56829 16.4703 9.56829C16.7464 9.56829 16.9703 9.79215 16.9703 10.0683V17.5C16.9703 17.7761 16.7464 18 16.4703 18H2.5C2.22386 18 2 17.7761 2 17.5V3.28992Z" fill="#FF3E5B"/>
</svg>
