<svg width="20" height="21" viewBox="0 0 20 21" fill="none" xmlns="http://www.w3.org/2000/svg">
<path fill-rule="evenodd" clip-rule="evenodd" d="M8.69565 2.5C4.99775 2.5 2 5.49775 2 9.19565C2 12.8936 4.99775 15.8913 8.69565 15.8913C10.3646 15.8913 11.891 15.2807 13.0635 14.2706L17.1464 18.3536C17.3417 18.5488 17.6583 18.5488 17.8536 18.3536C18.0488 18.1583 18.0488 17.8417 17.8536 17.6464L13.7706 13.5635C14.7807 12.391 15.3913 10.8646 15.3913 9.19565C15.3913 5.49775 12.3936 2.5 8.69565 2.5ZM3 9.19565C3 6.05003 5.55003 3.5 8.69565 3.5C11.8413 3.5 14.3913 6.05003 14.3913 9.19565C14.3913 12.3413 11.8413 14.8913 8.69565 14.8913C5.55003 14.8913 3 12.3413 3 9.19565Z" fill="#FF3E5B"/>
</svg>
