<svg width="24" height="24" viewBox="0 0 24 24" fill="none" xmlns="http://www.w3.org/2000/svg">
<path fill-rule="evenodd" clip-rule="evenodd" d="M5 3H19C19.5304 3 20.0391 3.21071 20.4142 3.58579C20.7893 3.96086 21 4.46957 21 5V19C20.9984 19.5299 20.7872 20.0377 20.4125 20.4125C20.0377 20.7872 19.5299 20.9984 19 21H5C4.46957 21 3.96086 20.7893 3.58579 20.4142C3.21071 20.0391 3 19.5304 3 19V5C3 4.46957 3.21071 3.96086 3.58579 3.58579C3.96086 3.21071 4.46957 3 5 3ZM5.00001 18H19V5.99998H5.00001V18Z" fill="#0B0B0C"/>
<path d="M16.5 12.9H7.5V11.1H16.5V12.9Z" fill="#0B0B0C"/>
</svg>
