<svg width="24" height="24" viewBox="0 0 24 24" fill="none" xmlns="http://www.w3.org/2000/svg">
<mask id="path-1-inside-1_1_8774" fill="white">
<path fill-rule="evenodd" clip-rule="evenodd" d="M4.51677 6.99987C3.52784 8.47991 3 10.22 3 12C3 14.3869 3.94821 16.6761 5.63604 18.364C7.32386 20.0518 9.61305 21 12 21C13.78 21 15.5201 20.4722 17.0001 19.4832C18.4802 18.4943 19.6337 17.0887 20.3149 15.4442C20.9961 13.7996 21.1743 11.99 20.8271 10.2442C20.4798 8.49836 19.6226 6.89471 18.364 5.63604C17.1053 4.37737 15.5016 3.5202 13.7558 3.17294C12.01 2.82567 10.2004 3.0039 8.55585 3.68509C6.91131 4.36628 5.50571 5.51983 4.51677 6.99987ZM11.0952 7.554H8.94844V6.6H15.2484V7.5468H13.5648C13.9081 7.9041 14.1262 8.4054 14.1892 9.1056H15.2484V10.0515H14.1759C14.0002 11.4672 13.0954 12.7794 11.2716 12.7956H10.5982L14.1042 17.4H12.4426L8.94844 12.7875V11.6022H11.144C12.0984 11.6022 12.7717 11.1009 12.9261 10.0515H8.94844V9.1056H12.9261C12.7647 8.0715 12.0559 7.554 11.0952 7.554Z"/>
</mask>
<path fill-rule="evenodd" clip-rule="evenodd" d="M4.51677 6.99987C3.52784 8.47991 3 10.22 3 12C3 14.3869 3.94821 16.6761 5.63604 18.364C7.32386 20.0518 9.61305 21 12 21C13.78 21 15.5201 20.4722 17.0001 19.4832C18.4802 18.4943 19.6337 17.0887 20.3149 15.4442C20.9961 13.7996 21.1743 11.99 20.8271 10.2442C20.4798 8.49836 19.6226 6.89471 18.364 5.63604C17.1053 4.37737 15.5016 3.5202 13.7558 3.17294C12.01 2.82567 10.2004 3.0039 8.55585 3.68509C6.91131 4.36628 5.50571 5.51983 4.51677 6.99987ZM11.0952 7.554H8.94844V6.6H15.2484V7.5468H13.5648C13.9081 7.9041 14.1262 8.4054 14.1892 9.1056H15.2484V10.0515H14.1759C14.0002 11.4672 13.0954 12.7794 11.2716 12.7956H10.5982L14.1042 17.4H12.4426L8.94844 12.7875V11.6022H11.144C12.0984 11.6022 12.7717 11.1009 12.9261 10.0515H8.94844V9.1056H12.9261C12.7647 8.0715 12.0559 7.554 11.0952 7.554Z" fill="#0B0B0C"/>
<path d="M4.51677 6.99987L3.6853 6.4443L3.6853 6.4443L4.51677 6.99987ZM5.63604 18.364L4.92893 19.0711L4.92893 19.0711L5.63604 18.364ZM17.0001 19.4832L17.5557 20.3147L17.5557 20.3147L17.0001 19.4832ZM20.8271 10.2442L19.8463 10.4393L19.8463 10.4393L20.8271 10.2442ZM18.364 5.63604L17.6568 6.34315L17.6568 6.34315L18.364 5.63604ZM13.7558 3.17294L13.9509 2.19215L13.9509 2.19215L13.7558 3.17294ZM8.55585 3.68509L8.93853 4.60897L8.55585 3.68509ZM8.94844 7.554H7.94844V8.554H8.94844V7.554ZM8.94844 6.6V5.6H7.94844V6.6H8.94844ZM15.2484 6.6H16.2484V5.6H15.2484V6.6ZM15.2484 7.5468V8.5468H16.2484V7.5468H15.2484ZM13.5648 7.5468V6.5468H11.2169L12.8437 8.23969L13.5648 7.5468ZM14.1892 9.1056L13.1933 9.19521L13.2752 10.1056H14.1892V9.1056ZM15.2484 9.1056H16.2484V8.1056H15.2484V9.1056ZM15.2484 10.0515V11.0515H16.2484V10.0515H15.2484ZM14.1759 10.0515V9.0515H13.2922L13.1835 9.9284L14.1759 10.0515ZM11.2716 12.7956L11.2716 13.7956L11.2804 13.7956L11.2716 12.7956ZM10.5982 12.7956V11.7956H8.57992L9.80264 13.4014L10.5982 12.7956ZM14.1042 17.4V18.4H16.1225L14.8998 16.7942L14.1042 17.4ZM12.4426 17.4L11.6455 18.0038L11.9456 18.4H12.4426V17.4ZM8.94844 12.7875H7.94844V13.1235L8.15133 13.3913L8.94844 12.7875ZM8.94844 11.6022V10.6022H7.94844V11.6022H8.94844ZM12.9261 10.0515L13.9155 10.197L14.0839 9.0515H12.9261V10.0515ZM8.94844 10.0515H7.94844V11.0515H8.94844V10.0515ZM8.94844 9.1056V8.1056H7.94844V9.1056H8.94844ZM12.9261 9.1056V10.1056H14.0943L13.9141 8.95135L12.9261 9.1056ZM4 12C4 10.4178 4.46919 8.87103 5.34824 7.55544L3.6853 6.4443C2.58649 8.08879 2 10.0222 2 12H4ZM6.34315 17.6569C4.84285 16.1566 4 14.1217 4 12H2C2 14.6522 3.05357 17.1957 4.92893 19.0711L6.34315 17.6569ZM12 20C9.87827 20 7.84344 19.1571 6.34314 17.6569L4.92893 19.0711C6.80429 20.9464 9.34783 22 12 22V20ZM16.4446 18.6518C15.129 19.5308 13.5822 20 12 20V22C13.9778 22 15.9112 21.4135 17.5557 20.3147L16.4446 18.6518ZM19.391 15.0615C18.7855 16.5233 17.7602 17.7727 16.4446 18.6518L17.5557 20.3147C19.2002 19.2159 20.4819 17.6541 21.2388 15.8268L19.391 15.0615ZM19.8463 10.4393C20.155 11.9911 19.9965 13.5997 19.391 15.0615L21.2388 15.8268C21.9957 13.9996 22.1937 11.9889 21.8078 10.0491L19.8463 10.4393ZM17.6568 6.34315C18.7757 7.46197 19.5376 8.88743 19.8463 10.4393L21.8078 10.0491C21.422 8.10929 20.4696 6.32746 19.0711 4.92894L17.6568 6.34315ZM13.5607 4.15372C15.1126 4.4624 16.538 5.22433 17.6568 6.34315L19.0711 4.92894C17.6725 3.53041 15.8907 2.578 13.9509 2.19215L13.5607 4.15372ZM8.93853 4.60897C10.4003 4.00347 12.0089 3.84504 13.5607 4.15372L13.9509 2.19215C12.0111 1.8063 10.0004 2.00433 8.17316 2.76121L8.93853 4.60897ZM5.34824 7.55544C6.22729 6.23985 7.47672 5.21447 8.93853 4.60897L8.17316 2.76121C6.3459 3.51808 4.78412 4.79981 3.6853 6.4443L5.34824 7.55544ZM8.94844 8.554H11.0952V6.554H8.94844V8.554ZM7.94844 6.6V7.554H9.94844V6.6H7.94844ZM15.2484 5.6H8.94844V7.6H15.2484V5.6ZM16.2484 7.5468V6.6H14.2484V7.5468H16.2484ZM13.5648 8.5468H15.2484V6.5468H13.5648V8.5468ZM15.1852 9.01599C15.1071 8.14776 14.8231 7.41303 14.2858 6.85391L12.8437 8.23969C12.9931 8.39516 13.1454 8.66304 13.1933 9.19521L15.1852 9.01599ZM15.2484 8.1056H14.1892V10.1056H15.2484V8.1056ZM16.2484 10.0515V9.1056H14.2484V10.0515H16.2484ZM14.1759 11.0515H15.2484V9.0515H14.1759V11.0515ZM11.2804 13.7956C12.4536 13.7851 13.3998 13.3474 14.0708 12.6329C14.7231 11.9383 15.0606 11.0428 15.1683 10.1746L13.1835 9.9284C13.1155 10.4759 12.9128 10.9444 12.6128 11.2638C12.3315 11.5634 11.9133 11.7899 11.2627 11.7956L11.2804 13.7956ZM10.5982 13.7956H11.2716V11.7956H10.5982V13.7956ZM14.8998 16.7942L11.3939 12.1898L9.80264 13.4014L13.3086 18.0058L14.8998 16.7942ZM12.4426 18.4H14.1042V16.4H12.4426V18.4ZM8.15133 13.3913L11.6455 18.0038L13.2397 16.7962L9.74554 12.1837L8.15133 13.3913ZM7.94844 11.6022V12.7875H9.94844V11.6022H7.94844ZM11.144 10.6022H8.94844V12.6022H11.144V10.6022ZM11.9367 9.90598C11.8873 10.2419 11.7741 10.386 11.6938 10.453C11.6086 10.5242 11.4478 10.6022 11.144 10.6022V12.6022C11.7946 12.6022 12.4477 12.4295 12.9763 11.9877C13.5099 11.5418 13.8105 10.9105 13.9155 10.197L11.9367 9.90598ZM8.94844 11.0515H12.9261V9.0515H8.94844V11.0515ZM7.94844 9.1056V10.0515H9.94844V9.1056H7.94844ZM12.9261 8.1056H8.94844V10.1056H12.9261V8.1056ZM11.0952 8.554C11.3972 8.554 11.5761 8.63368 11.6787 8.71729C11.7748 8.79556 11.889 8.94555 11.9381 9.25984L13.9141 8.95135C13.8018 8.23155 13.4808 7.60574 12.942 7.16673C12.4097 6.73307 11.7538 6.554 11.0952 6.554V8.554Z" fill="#0B0B0C" mask="url(#path-1-inside-1_1_8774)"/>
</svg>
