<svg width="24" height="24" viewBox="0 0 24 24" fill="none" xmlns="http://www.w3.org/2000/svg">
<path fill-rule="evenodd" clip-rule="evenodd" d="M12 3C10.22 3 8.47993 3.52784 6.99989 4.51677C5.51984 5.50571 4.36629 6.91131 3.6851 8.55585C3.00391 10.2004 2.82568 12.01 3.17295 13.7558C3.52022 15.5016 4.37738 17.1053 5.63606 18.364C6.89473 19.6226 8.49838 20.4798 10.2442 20.8271C11.99 21.1743 13.7996 20.9961 15.4442 20.3149C17.0887 19.6337 18.4943 18.4802 19.4832 17.0001C20.4722 15.5201 21 13.78 21 12C21 9.61305 20.0518 7.32387 18.364 5.63604C16.6761 3.94821 14.387 3 12 3ZM15.2487 8.70586C15.5923 8.70586 15.9281 8.80774 16.2137 8.9986C16.4994 9.18947 16.722 9.46075 16.8535 9.77814C16.985 10.0955 17.0194 10.4448 16.9523 10.7817C16.8853 11.1187 16.7199 11.4282 16.477 11.6711C16.234 11.914 15.9245 12.0795 15.5876 12.1465C15.2506 12.2135 14.9014 12.1791 14.584 12.0476C14.2666 11.9162 13.9953 11.6935 13.8045 11.4079C13.6136 11.1222 13.5117 10.7864 13.5117 10.4429C13.5111 10.2146 13.5557 9.98845 13.6427 9.77744C13.7298 9.56643 13.8577 9.37471 14.0192 9.2133C14.1806 9.05188 14.3723 8.92396 14.5833 8.83688C14.7943 8.74979 15.0204 8.70527 15.2487 8.70586ZM11.029 7.64175C10.6797 7.40836 10.2691 7.28379 9.849 7.28379C9.28597 7.28474 8.74628 7.50882 8.34816 7.90694C7.95003 8.30507 7.72595 8.84476 7.725 9.40779C7.725 9.82788 7.84957 10.2385 8.08296 10.5878C8.31635 10.9371 8.64807 11.2093 9.03618 11.3701C9.42429 11.5309 9.85135 11.5729 10.2634 11.491C10.6754 11.409 11.0538 11.2067 11.3509 10.9097C11.6479 10.6126 11.8502 10.2342 11.9322 9.82216C12.0141 9.41014 11.9721 8.98308 11.8113 8.59497C11.6506 8.20686 11.3783 7.87513 11.029 7.64175ZM9.84963 15.5012V18.8762C8.78564 18.541 7.81402 17.9633 7.01127 17.1886C6.20852 16.414 5.59658 15.4636 5.22363 14.4122C6.16863 13.4042 8.52663 12.8912 9.84963 12.8912C10.4246 12.9034 10.9971 12.9696 11.5596 13.0892C11.0723 13.2835 10.6517 13.6146 10.3483 14.0426C10.0449 14.4705 9.87169 14.9771 9.84963 15.5012ZM11.2881 19.1638C11.5242 19.1895 11.7616 19.2015 11.9991 19.1998C13.4473 19.1971 14.8612 18.7588 16.057 17.9418C17.2528 17.1248 18.1751 15.9669 18.7041 14.6188C17.6756 13.9485 16.4757 13.5891 15.2481 13.5838C13.9341 13.5838 11.2881 14.2228 11.2881 15.5008V19.1638Z" fill="#0B0B0C"/>
</svg>
