<svg width="16" height="17" viewBox="0 0 16 17" fill="none" xmlns="http://www.w3.org/2000/svg">
<circle cx="8" cy="8.5" r="6" fill="#0B0B0C"/>
<path fill-rule="evenodd" clip-rule="evenodd" d="M10.795 5.63809C11.0554 5.89844 11.0132 6.36276 10.7007 6.67518L6.17525 11.2007C5.86283 11.5131 5.39851 11.5553 5.13816 11.2949C4.87781 11.0346 4.92002 10.5703 5.23244 10.2579L9.75792 5.73237C10.0703 5.41995 10.5347 5.37774 10.795 5.63809Z" fill="white"/>
<path fill-rule="evenodd" clip-rule="evenodd" d="M5.18546 5.63809C5.44581 5.37774 5.91013 5.41995 6.22255 5.73237L10.748 10.2579C11.0604 10.5703 11.1027 11.0346 10.8423 11.2949C10.582 11.5553 10.1176 11.5131 9.80522 11.2007L5.27974 6.67518C4.96732 6.36276 4.92511 5.89844 5.18546 5.63809Z" fill="white"/>
</svg>
