<svg width="24" height="24" viewBox="0 0 24 24" fill="none" xmlns="http://www.w3.org/2000/svg">
<path fill-rule="evenodd" clip-rule="evenodd" d="M8.13833 3.77228C9.2815 2.80916 10.7776 2.40002 11.9665 2.40002C13.1547 2.40002 14.664 2.80868 15.821 3.76955C16.9327 4.69274 17.6896 6.10481 17.5416 8.041C17.8102 8.20745 18.0517 8.44979 18.1997 8.79558C18.4305 9.33479 18.4527 10.0697 18.3489 10.7013C18.2953 11.0275 18.2034 11.357 18.0668 11.6506C17.9516 11.8984 17.7911 12.1494 17.5691 12.3435C17.5818 12.6228 17.5577 12.9863 17.438 13.3495C17.2658 13.8723 16.8799 14.4245 16.1248 14.6548C15.8264 14.7458 15.4608 14.7275 15.1392 14.686C15.0004 14.668 14.8545 14.6435 14.7041 14.6136C14.744 14.6911 14.7904 14.7723 14.8519 14.8659C15.0181 15.119 15.2759 15.4107 15.7517 15.7108C15.9374 15.8279 16.1868 15.9099 16.541 15.996C16.6263 16.0167 16.7195 16.038 16.8182 16.0606C17.0962 16.1241 17.4174 16.1975 17.7265 16.2958C18.6242 16.5811 19.5671 17.1137 20.2321 18.4212C20.7386 19.417 20.818 20.2089 20.5484 20.7988C20.2965 21.35 19.7709 21.6226 19.3487 21.5986H4.65133C4.22906 21.6226 3.70347 21.35 3.45157 20.7988C3.18198 20.2089 3.26143 19.417 3.76786 18.4212C4.43288 17.1137 5.37581 16.5811 6.27346 16.2958C6.5826 16.1975 6.90381 16.1241 7.18175 16.0606C7.28045 16.038 7.37369 16.0167 7.459 15.996C7.81318 15.9099 8.06254 15.8279 8.24826 15.7108C8.72412 15.4107 8.98192 15.119 9.14811 14.8659C9.25516 14.7029 9.31637 14.5776 9.37765 14.4441C9.19133 14.2746 9.01731 14.0865 8.85623 13.8818C8.57483 13.5242 8.33319 13.1171 8.13145 12.6698C7.99651 12.7031 7.8551 12.7262 7.71682 12.7377C7.3513 12.7679 6.8548 12.7295 6.44222 12.4332C6.16049 12.231 5.96543 11.9386 5.83149 11.6506C5.69492 11.357 5.60303 11.0275 5.5494 10.7013C5.44555 10.0697 5.46774 9.33479 5.69855 8.79558C5.86189 8.41402 6.14407 8.16098 6.44712 7.99628C6.31244 6.08725 7.04877 4.69023 8.13833 3.77228ZM7.42985 8.91965C7.34336 8.93443 7.26049 8.95446 7.18402 8.98022C6.95327 9.05796 6.84686 9.16238 6.80173 9.26781C6.69394 9.51961 6.65018 9.99987 6.7335 10.5066C6.77347 10.7496 6.83845 10.9701 6.91959 11.1446C7.00336 11.3248 7.08684 11.4188 7.14207 11.4585C7.22626 11.5189 7.38931 11.5606 7.61803 11.5417C7.65473 11.5387 7.69067 11.5343 7.72529 11.5288C7.59976 11.0693 7.50725 10.5828 7.44785 10.0761C7.40088 9.67554 7.39654 9.28917 7.42985 8.91965ZM7.6957 7.68941C7.67498 7.69017 7.65414 7.6911 7.63317 7.69222C7.59328 6.28941 8.15213 5.32976 8.9115 4.69C9.80434 3.93779 11.0127 3.60002 11.9665 3.60002C12.9211 3.60002 14.1459 3.93827 15.0544 4.69273C15.8274 5.33465 16.3961 6.29476 16.3583 7.6952C16.3544 7.69493 16.3504 7.69467 16.3465 7.69442C16.137 7.04287 15.8015 6.4776 15.3723 6.01125C14.4907 5.05331 13.2465 4.5492 11.9968 4.5492C10.1402 4.5492 8.37064 5.77509 7.6957 7.68941ZM16.5791 8.93479C16.6032 9.29767 16.5932 9.67907 16.5456 10.0775C16.4837 10.5951 16.3934 11.0842 16.274 11.5412C16.2761 11.5414 16.2782 11.5416 16.2803 11.5417C16.509 11.5606 16.672 11.5189 16.7562 11.4585C16.8114 11.4188 16.8949 11.3248 16.9787 11.1446C17.0598 10.9701 17.1248 10.7496 17.1648 10.5066C17.2481 9.99987 17.2043 9.51961 17.0966 9.26781C17.047 9.15199 16.9419 9.05148 16.7317 8.97799C16.6836 8.96115 16.6325 8.94679 16.5791 8.93479ZM15.8801 12.6951C15.7527 12.9875 15.6092 13.2605 15.4491 13.5125C15.642 13.5282 15.7439 13.5164 15.7748 13.507C16.0682 13.4175 16.2159 13.224 16.2983 12.9741C16.323 12.8988 16.3404 12.8215 16.352 12.746C16.2927 12.7451 16.2357 12.7421 16.1815 12.7377C16.0814 12.7294 15.9797 12.715 15.8801 12.6951ZM14.1638 13.2457C13.4899 13.0523 12.7842 12.7878 12.2745 12.5449C11.9753 12.4024 11.6173 12.5293 11.4748 12.8285C11.3322 13.1276 11.4592 13.4857 11.7583 13.6282C12.1014 13.7917 12.513 13.9597 12.9443 14.1132C12.6538 14.2128 12.3382 14.2633 11.9968 14.2633C11.1113 14.2633 10.3732 13.8691 9.79924 13.1397C9.21393 12.3959 8.79925 11.2974 8.63968 9.93638C8.34475 7.42073 10.1756 5.7492 11.9968 5.7492C12.9303 5.7492 13.8477 6.12673 14.4893 6.82388C15.1222 7.51157 15.5201 8.547 15.3541 9.93498C15.1768 11.4167 14.76 12.5086 14.1867 13.2177C14.1791 13.2271 14.1714 13.2364 14.1638 13.2457ZM13.6248 15.1347C13.1319 15.351 12.5867 15.4633 11.9968 15.4633C11.4108 15.4633 10.8712 15.341 10.3845 15.1165C10.3164 15.2501 10.2379 15.3925 10.1512 15.5246C9.99175 15.7674 9.78682 16.0165 9.50922 16.2631C10.0024 16.5698 10.7175 16.8351 11.5446 16.9136C12.4971 17.004 13.5383 16.8397 14.4764 16.2503C14.2061 16.0079 14.0055 15.7632 13.8488 15.5246C13.766 15.3985 13.6907 15.263 13.6248 15.1347ZM15.5651 16.9522C14.2595 17.9605 12.7524 18.2336 11.4312 18.1082C10.2381 17.995 9.13024 17.5492 8.42309 16.9568C8.19365 17.0464 7.96009 17.1091 7.7424 17.162C7.62479 17.1906 7.51211 17.2163 7.40224 17.2414C7.14077 17.3012 6.89519 17.3573 6.637 17.4394C5.96345 17.6535 5.32201 18.0126 4.83747 18.9652C4.40609 19.8134 4.49278 20.1902 4.54298 20.3C4.57903 20.3789 4.62283 20.3954 4.62685 20.3986H19.3731C19.3772 20.3954 19.4209 20.3789 19.457 20.3C19.5072 20.1902 19.5939 19.8134 19.1625 18.9652C18.678 18.0126 18.0365 17.6535 17.363 17.4394C17.1048 17.3573 16.8592 17.3012 16.5977 17.2414C16.4879 17.2163 16.3752 17.1906 16.2576 17.162C16.0362 17.1082 15.7983 17.0442 15.5651 16.9522Z" fill="#0B0B0C"/>
</svg>
