<svg width="24" height="24" viewBox="0 0 24 24" fill="none" xmlns="http://www.w3.org/2000/svg">
<path d="M17 11C17.3351 11.0047 17.6694 11.0348 18 11.09V6.27L10.5 3L3 6.27V11.18C3.0057 13.4114 3.74204 15.5795 5.09644 17.3529C6.45084 19.1263 8.34876 20.4073 10.5 21C11.0491 20.8664 11.5848 20.6823 12.1 20.45C11.4651 19.5527 11.0893 18.498 11.0138 17.4014C10.9383 16.3048 11.166 15.2085 11.672 14.2327C12.178 13.2569 12.9427 12.4391 13.8825 11.8689C14.8222 11.2987 15.9008 10.9981 17 11V11Z" fill="#0B0B0C"/>
<path fill-rule="evenodd" clip-rule="evenodd" d="M17 13C16.2089 13 15.4355 13.2346 14.7777 13.6741C14.1199 14.1136 13.6072 14.7383 13.3045 15.4692C13.0017 16.2001 12.9225 17.0044 13.0769 17.7803C13.2312 18.5563 13.6122 19.269 14.1716 19.8284C14.731 20.3878 15.4437 20.7688 16.2196 20.9231C16.9956 21.0775 17.7998 20.9982 18.5307 20.6955C19.2616 20.3927 19.8864 19.88 20.3259 19.2223C20.7654 18.5645 21 17.7911 21 17C21 15.9391 20.5786 14.9217 19.8284 14.1715C19.0783 13.4214 18.0609 13 17 13ZM16.9989 14.3798C17.2955 14.3811 17.5796 14.4996 17.7894 14.7093C17.9992 14.9191 18.1176 15.2032 18.1189 15.4998C18.116 15.796 17.9971 16.0792 17.7877 16.2886C17.5783 16.498 17.295 16.617 16.9989 16.6198C16.7027 16.617 16.4195 16.498 16.2101 16.2886C16.0007 16.0792 15.8818 15.796 15.8789 15.4998C15.8802 15.2032 15.9986 14.9191 16.2084 14.7093C16.4181 14.4996 16.7023 14.3811 16.9989 14.3798ZM15.7359 19.4403C16.126 19.6441 16.5597 19.7503 16.9998 19.7499C17.4399 19.7503 17.8735 19.6441 18.2636 19.4403C18.6537 19.2366 18.9886 18.9414 19.2398 18.5799C19.1898 17.8599 17.7298 17.4999 16.9998 17.4999C16.2698 17.4999 14.8098 17.8599 14.7598 18.5799C15.0109 18.9414 15.3458 19.2366 15.7359 19.4403Z" fill="#0B0B0C"/>
</svg>
