<svg width="20" height="20" viewBox="0 0 20 20" fill="none" xmlns="http://www.w3.org/2000/svg">
<path fill-rule="evenodd" clip-rule="evenodd" d="M10 2C10.2761 2 10.5 2.22386 10.5 2.5V4.75C10.5 5.02614 10.2761 5.25 10 5.25C9.72386 5.25 9.5 5.02614 9.5 4.75V2.5C9.5 2.22386 9.72386 2 10 2ZM4.34315 4.34315C4.53841 4.14789 4.85499 4.14789 5.05025 4.34315L6.60355 5.89645C6.79882 6.09171 6.79882 6.40829 6.60355 6.60355C6.40829 6.79882 6.09171 6.79882 5.89645 6.60355L4.34315 5.05025C4.14789 4.85499 4.14789 4.53841 4.34315 4.34315ZM15.6569 4.34315C15.8521 4.53841 15.8521 4.85499 15.6569 5.05025L14.1036 6.60355C13.9083 6.79882 13.5917 6.79882 13.3964 6.60355C13.2012 6.40829 13.2012 6.09171 13.3964 5.89645L14.9497 4.34315C15.145 4.14789 15.4616 4.14789 15.6569 4.34315ZM10 7.5C8.61929 7.5 7.5 8.61929 7.5 10C7.5 11.3807 8.61929 12.5 10 12.5C11.3807 12.5 12.5 11.3807 12.5 10C12.5 8.61929 11.3807 7.5 10 7.5ZM6.5 10C6.5 8.067 8.067 6.5 10 6.5C11.933 6.5 13.5 8.067 13.5 10C13.5 11.933 11.933 13.5 10 13.5C8.067 13.5 6.5 11.933 6.5 10ZM2 10C2 9.72386 2.22386 9.5 2.5 9.5H4.75C5.02614 9.5 5.25 9.72386 5.25 10C5.25 10.2761 5.02614 10.5 4.75 10.5H2.5C2.22386 10.5 2 10.2761 2 10ZM14.75 10C14.75 9.72386 14.9739 9.5 15.25 9.5H17.5C17.7761 9.5 18 9.72386 18 10C18 10.2761 17.7761 10.5 17.5 10.5H15.25C14.9739 10.5 14.75 10.2761 14.75 10ZM6.60355 13.3964C6.79882 13.5917 6.79882 13.9083 6.60355 14.1036L5.05025 15.6569C4.85499 15.8521 4.53841 15.8521 4.34314 15.6569C4.14788 15.4616 4.14788 15.145 4.34314 14.9498L5.89645 13.3964C6.09171 13.2012 6.40829 13.2012 6.60355 13.3964ZM13.3964 13.3964C13.5917 13.2012 13.9083 13.2012 14.1036 13.3964L15.6569 14.9497C15.8521 15.145 15.8521 15.4616 15.6569 15.6569C15.4616 15.8521 15.145 15.8521 14.9497 15.6569L13.3964 14.1036C13.2012 13.9083 13.2012 13.5917 13.3964 13.3964ZM10 14.75C10.2761 14.75 10.5 14.9739 10.5 15.25V17.5C10.5 17.7761 10.2761 18 10 18C9.72386 18 9.5 17.7761 9.5 17.5V15.25C9.5 14.9739 9.72386 14.75 10 14.75Z" fill="#FF3E5B"/>
</svg>
