<svg width="24" height="24" viewBox="0 0 24 24" fill="none" xmlns="http://www.w3.org/2000/svg">
<path fill-rule="evenodd" clip-rule="evenodd" d="M14.82 4.0002H19C19.5299 4.00178 20.0377 4.21301 20.4125 4.58774C20.7872 4.96247 20.9984 5.47026 21 6.0002V20.0002C20.9984 20.5301 20.7872 21.0379 20.4125 21.4127C20.0377 21.7874 19.5299 21.9986 19 22.0002H5C4.47005 21.9986 3.96226 21.7874 3.58753 21.4127C3.2128 21.0379 3.00158 20.5301 3 20.0002V6.0002C3.00158 5.47026 3.2128 4.96247 3.58753 4.58774C3.96226 4.21301 4.47005 4.00178 5 4.0002H9.18C9.38476 3.41564 9.76612 2.90916 10.2713 2.55082C10.7765 2.19248 11.3806 2 12 2C12.6194 2 13.2235 2.19248 13.7287 2.55082C14.2339 2.90916 14.6152 3.41564 14.82 4.0002ZM12.5556 4.16854C12.3911 4.05866 12.1978 4.00001 12 4.00001C11.7348 4.00001 11.4805 4.10536 11.2929 4.2929C11.1054 4.48044 11 4.73479 11 5.00001C11 5.19779 11.0587 5.39113 11.1686 5.55558C11.2784 5.72003 11.4346 5.8482 11.6173 5.92389C11.8001 5.99957 12.0011 6.01938 12.1951 5.98079C12.3891 5.94221 12.5673 5.84697 12.7071 5.70711C12.847 5.56726 12.9422 5.38908 12.9808 5.1951C13.0194 5.00112 12.9996 4.80005 12.9239 4.61732C12.8482 4.4346 12.72 4.27842 12.5556 4.16854ZM12 8.00002C12.5934 8.00002 13.1734 8.17596 13.6667 8.50561C14.1601 8.83525 14.5446 9.30379 14.7717 9.85197C14.9987 10.4001 15.0581 11.0033 14.9424 11.5853C14.8266 12.1672 14.5409 12.7018 14.1213 13.1213C13.7018 13.5409 13.1672 13.8266 12.5853 13.9424C12.0033 14.0581 11.4001 13.9987 10.852 13.7717C10.3038 13.5446 9.83525 13.1601 9.50561 12.6667C9.17596 12.1734 9.00002 11.5934 9.00002 11C9.00002 10.2044 9.31609 9.44131 9.8787 8.8787C10.4413 8.31609 11.2044 8.00002 12 8.00002ZM5.99998 18.6V20H18V18.6C18 16.6 14 15.5 12 15.5C9.99998 15.5 5.99998 16.6 5.99998 18.6Z" fill="#0B0B0C"/>
</svg>
