<svg width="30" height="30" viewBox="0 0 30 30" fill="none" xmlns="http://www.w3.org/2000/svg">
<path fill-rule="evenodd" clip-rule="evenodd" d="M22.0681 22.7649C24.1767 20.8444 25.5 18.0767 25.5 15C25.5 9.20101 20.799 4.5 15 4.5C9.20101 4.5 4.5 9.20101 4.5 15C4.5 18.0767 5.82333 20.8444 7.93186 22.7648C8.51728 19.3913 11.4591 16.8259 15 16.8259C18.541 16.8259 21.4827 19.3913 22.0681 22.7649ZM20.6718 23.8379C20.586 20.7791 18.0795 18.3259 15 18.3259C11.9205 18.3259 9.41403 20.7791 9.3282 23.8379C10.9639 24.8898 12.9107 25.5 15 25.5C17.0893 25.5 19.0361 24.8898 20.6718 23.8379ZM15 27C21.6274 27 27 21.6274 27 15C27 8.37258 21.6274 3 15 3C8.37258 3 3 8.37258 3 15C3 21.6274 8.37258 27 15 27ZM15 14.4224C16.3264 14.4224 17.4016 13.3471 17.4016 12.0207C17.4016 10.6943 16.3264 9.61908 15 9.61908C13.6736 9.61908 12.5983 10.6943 12.5983 12.0207C12.5983 13.3471 13.6736 14.4224 15 14.4224ZM15 15.9224C17.1548 15.9224 18.9016 14.1756 18.9016 12.0207C18.9016 9.86591 17.1548 8.11908 15 8.11908C12.8451 8.11908 11.0983 9.86591 11.0983 12.0207C11.0983 14.1756 12.8451 15.9224 15 15.9224Z" fill="#FF3E5B"/>
</svg>
