<svg width="24" height="24" viewBox="0 0 24 24" fill="none" xmlns="http://www.w3.org/2000/svg">
<path fill-rule="evenodd" clip-rule="evenodd" d="M6.99333 4.52115C8.47218 3.53114 10.2114 3.00178 11.991 3C13.1737 2.99882 14.3449 3.23074 15.4379 3.6825C16.5309 4.13427 17.5241 4.79701 18.3608 5.63286C19.1975 6.4687 19.8612 7.46126 20.3141 8.55377C20.7669 9.64629 21 10.8173 21 12C21 13.7797 20.4724 15.5194 19.4839 16.9992C18.4953 18.479 17.0902 19.6326 15.4462 20.3141C13.8022 20.9955 11.9931 21.1743 10.2475 20.8277C8.50191 20.4812 6.89825 19.6249 5.63922 18.3671C4.38019 17.1094 3.52232 15.5066 3.17404 13.7613C2.82575 12.0161 3.0027 10.2068 3.68251 8.56208C4.36232 6.91739 5.51447 5.51116 6.99333 4.52115ZM12.0001 15.105L15.8071 17.4L14.7991 13.062L18.1561 10.155L13.7281 9.777L12.0001 5.7L10.2721 9.786L5.84414 10.164L9.20114 13.071L8.19314 17.4L12.0001 15.105Z" fill="#FF3E5B"/>
</svg>
