<svg width="24" height="24" viewBox="0 0 24 24" fill="none" xmlns="http://www.w3.org/2000/svg">
<path fill-rule="evenodd" clip-rule="evenodd" d="M18.3725 4.27655C18.6272 4.45774 18.8187 4.71427 18.92 5.01001L21 11V19C21 19.2652 20.8946 19.5196 20.7071 19.7071C20.5196 19.8947 20.2652 20 20 20H19C18.7348 20 18.4804 19.8947 18.2929 19.7071C18.1054 19.5196 18 19.2652 18 19V18H6V19C6 19.2652 5.89464 19.5196 5.70711 19.7071C5.51957 19.8947 5.26522 20 5 20H4C3.73478 20 3.48043 19.8947 3.29289 19.7071C3.10536 19.5196 3 19.2652 3 19V11L5.08 5.01001C5.18205 4.71476 5.37373 4.45873 5.6283 4.27767C5.88286 4.09661 6.18761 3.99954 6.5 4.00001H17.5C17.8126 3.99864 18.1178 4.09536 18.3725 4.27655ZM5.66665 14.7472C5.91333 14.9121 6.20333 15 6.50001 15C6.89783 15 7.27936 14.842 7.56067 14.5607C7.84197 14.2794 8.00001 13.8979 8.00001 13.5C8.00001 13.2034 7.91203 12.9133 7.74721 12.6667C7.58239 12.42 7.34812 12.2277 7.07403 12.1142C6.79994 12.0007 6.49834 11.971 6.20737 12.0288C5.9164 12.0867 5.64913 12.2296 5.43935 12.4394C5.22957 12.6491 5.08671 12.9164 5.02883 13.2074C4.97095 13.4984 5.00066 13.8 5.11419 14.0741C5.22772 14.3481 5.41998 14.5824 5.66665 14.7472ZM17.5 15C17.2033 15 16.9133 14.9121 16.6667 14.7472C16.42 14.5824 16.2277 14.3481 16.1142 14.0741C16.0007 13.8 15.971 13.4984 16.0288 13.2074C16.0867 12.9164 16.2296 12.6491 16.4394 12.4394C16.6491 12.2296 16.9164 12.0867 17.2074 12.0288C17.4983 11.971 17.7999 12.0007 18.074 12.1142C18.3481 12.2277 18.5824 12.42 18.7472 12.6667C18.912 12.9133 19 13.2034 19 13.5C19 13.8979 18.842 14.2794 18.5607 14.5607C18.2794 14.842 17.8978 15 17.5 15ZM6.50001 5.50002L5.00001 10H19L17.5 5.50002H6.50001Z" fill="#0B0B0C"/>
</svg>
