<svg width="24" height="24" viewBox="0 0 24 24" fill="none" xmlns="http://www.w3.org/2000/svg">
<path d="M19.9743 8.67365L13.7383 3.59271C12.7754 2.80397 11.2186 2.80397 10.2648 3.58353L4.02872 8.67365C3.32683 9.24228 2.87689 10.4437 3.02987 11.3425L4.22669 18.643C4.44266 19.9453 5.66647 21 6.96228 21H17.0408C18.3276 21 19.5604 19.9361 19.7763 18.643L20.9732 11.3425C21.1171 10.4437 20.6672 9.24228 19.9743 8.67365ZM12.0015 15.2129C10.7597 15.2129 9.75186 14.1857 9.75186 12.92C9.75186 11.6544 10.7597 10.6272 12.0015 10.6272C13.2433 10.6272 14.2512 11.6544 14.2512 12.92C14.2512 14.1857 13.2433 15.2129 12.0015 15.2129Z" fill="#0B0B0C"/>
</svg>
