<svg width="24" height="24" viewBox="0 0 24 24" fill="none" xmlns="http://www.w3.org/2000/svg">
<path fill-rule="evenodd" clip-rule="evenodd" d="M10.4347 2.40002C5.9972 2.40002 2.3999 5.99732 2.3999 10.4348C2.3999 14.8723 5.9972 18.4696 10.4347 18.4696C12.4375 18.4696 14.2691 17.7368 15.6761 16.5248L20.5756 21.4243C20.8099 21.6586 21.1898 21.6586 21.4242 21.4243C21.6585 21.19 21.6585 20.8101 21.4242 20.5758L16.5246 15.6762C17.7367 14.2692 18.4695 12.4376 18.4695 10.4348C18.4695 5.99732 14.8722 2.40002 10.4347 2.40002ZM3.5999 10.4348C3.5999 6.66006 6.65994 3.60002 10.4347 3.60002C14.2094 3.60002 17.2695 6.66006 17.2695 10.4348C17.2695 14.2096 14.2094 17.2696 10.4347 17.2696C6.65994 17.2696 3.5999 14.2096 3.5999 10.4348Z" fill="#0B0B0C"/>
</svg>
