<svg width="24" height="24" viewBox="0 0 24 24" fill="none" xmlns="http://www.w3.org/2000/svg">
<path fill-rule="evenodd" clip-rule="evenodd" d="M6.99987 4.51677C8.47991 3.52784 10.22 3 12 3C14.387 3 16.6761 3.94821 18.364 5.63604C20.0518 7.32387 21 9.61305 21 12C21 13.78 20.4722 15.5201 19.4832 17.0001C18.4943 18.4802 17.0887 19.6337 15.4442 20.3149C13.7996 20.9961 11.99 21.1743 10.2442 20.8271C8.49836 20.4798 6.89472 19.6226 5.63604 18.364C4.37737 17.1053 3.5202 15.5016 3.17294 13.7558C2.82567 12.01 3.0039 10.2004 3.68509 8.55585C4.36628 6.91131 5.51983 5.50571 6.99987 4.51677ZM15.1502 16.4974L16.4102 15.2374C16.4927 15.1533 16.5388 15.0402 16.5388 14.9224C16.5388 14.8047 16.4927 14.6916 16.4102 14.6074L13.3412 11.5385C13.5554 10.9443 13.5839 10.299 13.4227 9.68833C13.2616 9.07764 12.9185 8.5304 12.439 8.11928C11.9595 7.70816 11.3664 7.45261 10.7382 7.38656C10.1101 7.3205 9.47672 7.44707 8.92221 7.74945L11.0372 9.85545L9.76821 11.1244L7.65321 9.00945C7.35083 9.56396 7.22426 10.1973 7.29032 10.8255C7.35637 11.4536 7.61192 12.0468 8.02304 12.5263C8.43416 13.0057 8.9814 13.3488 9.59209 13.51C10.2028 13.6711 10.8481 13.6427 11.4422 13.4284L14.5112 16.4974C14.553 16.5396 14.6028 16.5731 14.6576 16.596C14.7125 16.6188 14.7713 16.6306 14.8307 16.6306C14.8901 16.6306 14.9489 16.6188 15.0038 16.596C15.0586 16.5731 15.1084 16.5396 15.1502 16.4974Z" fill="#0B0B0C"/>
</svg>
