<svg width="24" height="24" viewBox="0 0 24 24" fill="none" xmlns="http://www.w3.org/2000/svg">
<path fill-rule="evenodd" clip-rule="evenodd" d="M10.3863 3.77598C10.5486 3.00389 11.2124 2.40002 12.0445 2.40002C12.8864 2.40002 13.5562 3.01835 13.7083 3.80362C16.3656 4.60421 18.2871 7.1546 18.2871 10.1429V14.4328C18.2871 14.7362 18.4029 15.0224 18.6017 15.2296L21.3522 18.0969C21.8554 18.6215 21.5486 19.6 20.7254 19.6H14.4951C14.2346 20.7331 13.2526 21.6 12.0445 21.6H11.7704C10.5622 21.6 9.58026 20.7331 9.31976 19.6H3.27465C2.45145 19.6 2.14462 18.6215 2.64786 18.0969L5.39834 15.2296C5.59713 15.0224 5.71298 14.7362 5.71298 14.4328V10.1429C5.71298 7.11929 7.68013 4.544 10.3863 3.77598ZM12 4.74335C9.20716 4.7814 6.91298 7.1612 6.91298 10.1429V14.4328C6.91298 15.0387 6.68232 15.6246 6.26432 16.0603L4.01995 18.4H19.9801L17.7357 16.0603C17.3177 15.6246 17.0871 15.0387 17.0871 14.4328V10.1429C17.0871 7.1612 14.7929 4.7814 12 4.74335ZM10.578 19.6C10.7931 20.0808 11.2576 20.4 11.7704 20.4H12.0445C12.5573 20.4 13.0218 20.0808 13.2369 19.6H10.578Z" fill="#0B0B0C"/>
<circle cx="16.8" cy="7.2" r="7.2" fill="#FF3E5B"/>
<path d="M12.3692 6.05714C12.3692 6.51774 12.4984 6.87272 12.7567 7.12207C13.0151 7.37142 13.3739 7.4961 13.8332 7.4961C14.0807 7.4961 14.2996 7.458 14.4898 7.38181C14.68 7.30216 14.8396 7.19826 14.9688 7.07012C15.1016 6.93852 15.202 6.78787 15.2702 6.61818C15.3384 6.44502 15.3725 6.26493 15.3725 6.07792C15.3725 5.85281 15.3348 5.65021 15.2594 5.47012C15.1877 5.28657 15.0854 5.13246 14.9527 5.00779C14.8199 4.87965 14.662 4.78268 14.479 4.71688C14.2996 4.64761 14.1005 4.61298 13.8816 4.61298C13.6555 4.61298 13.4492 4.64935 13.2626 4.72207C13.0761 4.79134 12.9164 4.89004 12.7836 5.01818C12.6509 5.14631 12.5486 5.2987 12.4768 5.47532C12.4051 5.65194 12.3692 5.84588 12.3692 6.05714ZM14.4898 8.36363C14.6297 8.18701 14.7607 8.01385 14.8827 7.84415C14.6889 7.98614 14.4718 8.0935 14.2314 8.16623C13.9946 8.23896 13.7417 8.27532 13.4725 8.27532C13.1891 8.27532 12.9164 8.22857 12.6544 8.13506C12.3961 8.04155 12.1665 7.90476 11.9655 7.72467C11.7682 7.54112 11.6103 7.31601 11.4919 7.04934C11.3735 6.78268 11.3143 6.47618 11.3143 6.12986C11.3143 5.80432 11.3771 5.49783 11.5026 5.21038C11.6282 4.92294 11.8041 4.67359 12.0301 4.46233C12.2597 4.24761 12.5324 4.07965 12.8482 3.95844C13.1676 3.83376 13.5174 3.77142 13.8977 3.77142C14.2745 3.77142 14.6154 3.8303 14.9204 3.94805C15.2289 4.0658 15.4909 4.23203 15.7062 4.44675C15.9215 4.658 16.0883 4.91255 16.2067 5.21038C16.3251 5.50822 16.3843 5.83549 16.3843 6.1922C16.3843 6.41038 16.3628 6.61818 16.3197 6.81558C16.2803 7.01298 16.2211 7.20519 16.1421 7.3922C16.0668 7.57922 15.9735 7.7645 15.8623 7.94805C15.7546 8.12813 15.6308 8.31341 15.4909 8.50389L13.634 11.0753C13.5838 11.1446 13.5102 11.2017 13.4133 11.2467C13.32 11.2918 13.2124 11.3143 13.0904 11.3143H12.127L14.4898 8.36363Z" fill="white"/>
<path d="M18.6134 6.05714C18.6134 6.51774 18.7426 6.87272 19.0009 7.12207C19.2593 7.37142 19.6181 7.4961 20.0774 7.4961C20.325 7.4961 20.5438 7.458 20.734 7.38181C20.9242 7.30216 21.0839 7.19826 21.213 7.07012C21.3458 6.93852 21.4463 6.78787 21.5144 6.61818C21.5826 6.44502 21.6167 6.26493 21.6167 6.07792C21.6167 5.85281 21.579 5.65021 21.5037 5.47012C21.4319 5.28657 21.3296 5.13246 21.1969 5.00779C21.0641 4.87965 20.9062 4.78268 20.7232 4.71688C20.5438 4.64761 20.3447 4.61298 20.1258 4.61298C19.8998 4.61298 19.6934 4.64935 19.5069 4.72207C19.3203 4.79134 19.1606 4.89004 19.0278 5.01818C18.8951 5.14631 18.7928 5.2987 18.7211 5.47532C18.6493 5.65194 18.6134 5.84588 18.6134 6.05714ZM20.734 8.36363C20.874 8.18701 21.0049 8.01385 21.1269 7.84415C20.9332 7.98614 20.7161 8.0935 20.4757 8.16623C20.2388 8.23896 19.9859 8.27532 19.7168 8.27532C19.4333 8.27532 19.1606 8.22857 18.8987 8.13506C18.6403 8.04155 18.4107 7.90476 18.2097 7.72467C18.0124 7.54112 17.8545 7.31601 17.7361 7.04934C17.6177 6.78268 17.5585 6.47618 17.5585 6.12986C17.5585 5.80432 17.6213 5.49783 17.7469 5.21038C17.8725 4.92294 18.0483 4.67359 18.2743 4.46233C18.504 4.24761 18.7767 4.07965 19.0924 3.95844C19.4118 3.83376 19.7616 3.77142 20.142 3.77142C20.5187 3.77142 20.8596 3.8303 21.1646 3.94805C21.4732 4.0658 21.7351 4.23203 21.9504 4.44675C22.1657 4.658 22.3325 4.91255 22.4509 5.21038C22.5694 5.50822 22.6286 5.83549 22.6286 6.1922C22.6286 6.41038 22.607 6.61818 22.564 6.81558C22.5245 7.01298 22.4653 7.20519 22.3864 7.3922C22.311 7.57922 22.2177 7.7645 22.1065 7.94805C21.9988 8.12813 21.875 8.31341 21.7351 8.50389L19.8782 11.0753C19.828 11.1446 19.7544 11.2017 19.6576 11.2467C19.5643 11.2918 19.4566 11.3143 19.3346 11.3143H18.3712L20.734 8.36363Z" fill="white"/>
</svg>
