<svg width="16" height="16" viewBox="0 0 16 16" fill="none" xmlns="http://www.w3.org/2000/svg">
<path d="M7.04462 4.42512C7.33499 3.48545 8.66509 3.48545 8.95546 4.42513L9.35605 5.72144C9.48553 6.14044 9.87291 6.42619 10.3115 6.42619H11.7104C12.6669 6.42619 13.0776 7.64017 12.3175 8.22085L11.1008 9.15032C10.7678 9.40473 10.6287 9.83981 10.7524 10.2402L11.1966 11.6775C11.484 12.6077 10.4078 13.3584 9.63408 12.7674L8.6071 11.9828C8.2487 11.709 7.75138 11.709 7.39298 11.9828L6.366 12.7674C5.59232 13.3584 4.51607 12.6077 4.80352 11.6775L5.24766 10.2402C5.37139 9.83981 5.23233 9.40473 4.8993 9.15032L3.68261 8.22085C2.92249 7.64017 3.33314 6.42619 4.28967 6.42619H5.68861C6.12717 6.42619 6.51456 6.14044 6.64404 5.72144L7.04462 4.42512Z" fill="#B5B5B6"/>
</svg>
