<svg width="14" height="15" viewBox="0 0 14 15" fill="none" xmlns="http://www.w3.org/2000/svg">
<path fill-rule="evenodd" clip-rule="evenodd" d="M7.73787 11.875C7.73787 12.0683 7.89457 12.225 8.08787 12.225H12.25C12.4433 12.225 12.6 12.0683 12.6 11.875C12.6 11.6817 12.4433 11.525 12.25 11.525H8.08787C7.89457 11.525 7.73787 11.6817 7.73787 11.875ZM3.57098 12.221C3.6728 12.221 3.76957 12.1767 3.83606 12.0996L5.657 9.98752C5.78322 9.84112 5.76687 9.62012 5.62047 9.4939C5.47407 9.36768 5.25306 9.38404 5.12684 9.53044L3.92098 10.9291L3.92098 3.12105C3.92098 2.92775 3.76428 2.77105 3.57098 2.77105C3.37768 2.77105 3.22098 2.92775 3.22098 3.12105L3.22098 10.9291L2.01511 9.53044C1.88889 9.38404 1.66789 9.36768 1.52149 9.4939C1.37509 9.62012 1.35873 9.84112 1.48495 9.98752L3.30589 12.0996C3.37238 12.1767 3.46916 12.221 3.57098 12.221ZM7.73787 8.85596C7.73787 9.04926 7.89457 9.20596 8.08787 9.20596H11.2095C11.4028 9.20596 11.5595 9.04926 11.5595 8.85596C11.5595 8.66266 11.4028 8.50596 11.2095 8.50596H8.08787C7.89457 8.50596 7.73787 8.66266 7.73787 8.85596ZM7.73787 6.01257C7.73787 6.20587 7.89457 6.36257 8.08787 6.36257H10.1689C10.3622 6.36257 10.5189 6.20587 10.5189 6.01257C10.5189 5.81927 10.3622 5.66257 10.1689 5.66257H8.08787C7.89457 5.66257 7.73787 5.81927 7.73787 6.01257ZM7.73787 3.12105C7.73787 3.31435 7.89457 3.47105 8.08787 3.47105H9.12841C9.32171 3.47105 9.47841 3.31435 9.47841 3.12105C9.47841 2.92775 9.32171 2.77105 9.12841 2.77105H8.08787C7.89457 2.77105 7.73787 2.92775 7.73787 3.12105Z" fill="#B5B5B6"/>
</svg>
