<svg width="12" height="13" viewBox="0 0 12 13" fill="none" xmlns="http://www.w3.org/2000/svg">
<path d="M8.83962 2.56621V1.53094C8.83962 1.44121 8.7365 1.39166 8.66685 1.44657L2.62935 6.16219C2.57805 6.20209 2.53655 6.25317 2.50799 6.31154C2.47944 6.36992 2.4646 6.43404 2.4646 6.49902C2.4646 6.56401 2.47944 6.62813 2.50799 6.68651C2.53655 6.74488 2.57805 6.79596 2.62935 6.83585L8.66685 11.5515C8.73783 11.6064 8.83962 11.5568 8.83962 11.4671V10.4318C8.83962 10.3662 8.80882 10.3033 8.75792 10.2631L3.93649 6.49969L8.75792 2.73496C8.80882 2.69478 8.83962 2.63184 8.83962 2.56621V2.56621Z" fill="#D9D9D9"/>
</svg>
