<svg width="60" height="60" viewBox="0 0 60 60" fill="none" xmlns="http://www.w3.org/2000/svg">
<rect width="60" height="60" rx="30" fill="#E6E6E6"/>
<path d="M21.6025 33.88C21.6025 35.28 21.4275 36.54 21.0775 37.66C20.7275 38.78 20.2142 39.7308 19.5375 40.5125C18.8725 41.2825 18.0383 41.8775 17.035 42.2975C16.0433 42.7058 14.9 42.91 13.605 42.91C12.4383 42.91 11.2367 42.7467 10 42.42L10.21 40.215C10.2333 40.005 10.3092 39.8358 10.4375 39.7075C10.5775 39.5675 10.7817 39.4975 11.05 39.4975C11.2483 39.4975 11.5167 39.55 11.855 39.655C12.205 39.7483 12.66 39.795 13.22 39.795C13.9667 39.795 14.6258 39.6842 15.1975 39.4625C15.7808 39.2408 16.2708 38.8967 16.6675 38.43C17.0642 37.9517 17.3617 37.345 17.56 36.61C17.77 35.875 17.875 34.9942 17.875 33.9675V17.5H21.6025V33.88Z" fill="#0B0B0C"/>
<path d="M49.4907 30.065C49.4907 31.9433 49.1873 33.6525 48.5807 35.1925C47.9857 36.7325 47.1398 38.0567 46.0432 39.165C44.9465 40.2617 43.634 41.1133 42.1057 41.72C40.5773 42.3267 38.8798 42.63 37.0132 42.63H27.5632V17.5H37.0132C38.8798 17.5 40.5773 17.8033 42.1057 18.41C43.634 19.0167 44.9465 19.8742 46.0432 20.9825C47.1398 22.0792 47.9857 23.4033 48.5807 24.955C49.1873 26.495 49.4907 28.1983 49.4907 30.065ZM45.6757 30.065C45.6757 28.5717 45.4715 27.2358 45.0632 26.0575C44.6548 24.8675 44.0715 23.8642 43.3132 23.0475C42.5665 22.2192 41.6565 21.5892 40.5832 21.1575C39.5215 20.7258 38.3315 20.51 37.0132 20.51H31.3082V39.62H37.0132C38.3315 39.62 39.5215 39.4042 40.5832 38.9725C41.6565 38.5408 42.5665 37.9167 43.3132 37.1C44.0715 36.2717 44.6548 35.2683 45.0632 34.09C45.4715 32.9117 45.6757 31.57 45.6757 30.065Z" fill="#0B0B0C"/>
</svg>
