<svg width="17" height="24" viewBox="0 0 17 24" fill="none" xmlns="http://www.w3.org/2000/svg">
<path fill-rule="evenodd" clip-rule="evenodd" d="M3.08838 4.71876L0.0766602 0.0614624L5.44808 2.04858C10.9623 1.17921 13.293 3.28015 13.7691 4.43932C15.632 7.81741 13.7587 10.9802 12.5893 12.1394C15.5451 13.3317 16.3047 15.5754 16.3151 16.5483C16.4393 22.4848 12.3098 23.9689 10.1364 23.9689H3.11943L3.08838 4.71876ZM5.29283 13.7271H9.88306C12.0652 13.7271 13.8341 15.4961 13.8341 17.6782C13.8341 19.8603 12.0652 21.6292 9.88306 21.6292H5.29283V13.7271ZM8.72097 3.8494H5.29283V11.5191H8.72097C10.8389 11.5191 12.5559 9.80223 12.5559 7.68428C12.5559 5.56633 10.8389 3.8494 8.72097 3.8494Z" fill="#0B0B0C"/>
<path d="M0.0767537 0.0614949L0.0874949 0.0323776L0 0L0.0506739 0.0783543L0.0767537 0.0614949ZM3.08847 4.71879L3.11952 4.71873V4.7096L3.11455 4.7019L3.08847 4.71879ZM5.44817 2.04861L5.43743 2.07773L5.445 2.08054L5.45301 2.07928L5.44817 2.04861ZM13.7692 4.43935L13.7405 4.45115L13.7411 4.45277L13.742 4.45432L13.7692 4.43935ZM12.5894 12.1394L12.5675 12.1174L12.534 12.1506L12.5777 12.1682L12.5894 12.1394ZM16.3152 16.5483L16.2841 16.5486V16.5489L16.3152 16.5483ZM3.11952 23.969L3.08847 23.969L3.08853 24H3.11952V23.969ZM5.29293 13.7271V13.6961H5.26188V13.7271H5.29293ZM5.29293 21.6292H5.26188V21.6603H5.29293V21.6292ZM5.29293 3.84943V3.81838H5.26188V3.84943H5.29293ZM5.29293 11.5191H5.26188V11.5502H5.29293V11.5191ZM0.0506739 0.0783543L3.06239 4.73568L3.11455 4.7019L0.102833 0.0446355L0.0506739 0.0783543ZM5.45891 2.01949L0.0874949 0.0323776L0.0660125 0.0906122L5.43743 2.07773L5.45891 2.01949ZM13.798 4.42755C13.3143 3.25 10.9654 1.14733 5.44332 2.01794L5.45301 2.07928C10.9594 1.21116 13.272 3.31042 13.7405 4.45115L13.798 4.42755ZM12.6112 12.1615C13.7853 10.9978 15.669 7.82005 13.7964 4.42439L13.742 4.45432C15.5952 7.81484 13.7324 10.9628 12.5675 12.1174L12.6112 12.1615ZM16.3462 16.548C16.3357 15.5629 15.5687 13.3077 12.601 12.1106L12.5777 12.1682C15.5217 13.3557 16.2739 15.5881 16.2841 16.5486L16.3462 16.548ZM10.1365 24C11.2292 24 12.8125 23.6272 14.1078 22.5083C15.4042 21.3884 16.4085 19.524 16.3462 16.5477L16.2841 16.5489C16.3461 19.5092 15.3478 21.355 14.0671 22.4614C12.7853 23.5687 11.2173 23.9379 10.1365 23.9379V24ZM3.11952 24H10.1365V23.9379H3.11952V24ZM3.05742 4.71885L3.08847 23.969L3.15057 23.9689L3.11952 4.71873L3.05742 4.71885ZM9.88316 13.6961H5.29293V13.7582H9.88316V13.6961ZM13.8653 17.6782C13.8653 15.4789 12.0824 13.6961 9.88316 13.6961V13.7582C12.0481 13.7582 13.8032 15.5132 13.8032 17.6782H13.8653ZM9.88316 21.6603C12.0824 21.6603 13.8653 19.8774 13.8653 17.6782H13.8032C13.8032 19.8431 12.0481 21.5982 9.88316 21.5982V21.6603ZM5.29293 21.6603H9.88316V21.5982H5.29293V21.6603ZM5.26188 13.7271V21.6292H5.32397V13.7271H5.26188ZM5.29293 3.88048H8.72107V3.81838H5.29293V3.88048ZM5.32397 11.5191V3.84943H5.26188V11.5191H5.32397ZM8.72107 11.4881H5.29293V11.5502H8.72107V11.4881ZM12.5249 7.68431C12.5249 9.78506 10.8219 11.4881 8.72107 11.4881V11.5502C10.8562 11.5502 12.587 9.8194 12.587 7.68431H12.5249ZM8.72107 3.88048C10.8219 3.88048 12.5249 5.5835 12.5249 7.68431H12.587C12.587 5.54922 10.8562 3.81838 8.72107 3.81838V3.88048Z" fill="#0B0B0C"/>
<path d="M7.62829 7.71276C8.33503 7.71276 8.90795 7.13984 8.90795 6.4331C8.90795 5.72636 8.33503 5.15344 7.62829 5.15344C6.92155 5.15344 6.34863 5.72636 6.34863 6.4331C6.34863 7.13984 6.92155 7.71276 7.62829 7.71276Z" fill="#E31837"/>
</svg>
