<svg width="12" height="12" viewBox="0 0 12 12" fill="none" xmlns="http://www.w3.org/2000/svg">
<path fill-rule="evenodd" clip-rule="evenodd" d="M4.88889 6L1.15873 2.26984C0.77174 1.88285 0.594416 1.70552 0.601516 1.53592C0.60752 1.39248 0.745439 1.25456 1 0.999998C1.25456 0.745436 1.39248 0.607518 1.53592 0.601513C1.70553 0.594413 1.88285 0.771737 2.26984 1.15873L6 4.88889L9.73016 1.15873C10.1171 0.771737 10.2945 0.594413 10.4641 0.601513C10.6075 0.607517 10.7454 0.745436 11 0.999998C11.2546 1.25456 11.3925 1.39248 11.3985 1.53592C11.4056 1.70552 11.2283 1.88285 10.8413 2.26984L7.11111 6L10.8413 9.73016C11.2283 10.1171 11.4056 10.2945 11.3985 10.4641C11.3925 10.6075 11.2546 10.7454 11 11C10.7454 11.2546 10.6075 11.3925 10.4641 11.3985C10.2945 11.4056 10.1172 11.2283 9.73016 10.8413L6 7.11111L2.26984 10.8413C1.88285 11.2283 1.70552 11.4056 1.53592 11.3985C1.39248 11.3925 1.25456 11.2546 0.999998 11C0.745436 10.7454 0.607517 10.6075 0.601513 10.4641C0.594413 10.2945 0.771737 10.1171 1.15873 9.73016L4.88889 6Z" fill="#434343"/>
</svg>
