<svg width="16" height="16" viewBox="0 0 16 16" fill="none" xmlns="http://www.w3.org/2000/svg">
<path fill-rule="evenodd" clip-rule="evenodd" d="M13.6711 1.16368L6.82705 8.12519L6.66577 9.66037L8.11733 9.26936L14.6823 2.59169C14.6929 2.5809 14.704 2.57059 14.7156 2.56081C14.8405 2.45489 14.9587 2.23838 14.9915 1.96346C15.0237 1.6934 14.9643 1.44173 14.8333 1.2704C14.7135 1.11376 14.5112 1.01572 14.2654 1.00165C14.0231 0.987782 13.8027 1.06016 13.6711 1.16368ZM14.3226 0.00328464C14.7899 0.0300335 15.2926 0.224788 15.6277 0.662988C15.9515 1.08651 16.04 1.61606 15.9845 2.08179C15.9305 2.53454 15.7317 2.99982 15.3811 3.30729L8.73515 10.0673C8.67276 10.1308 8.59458 10.1764 8.50865 10.1996L6.22244 10.8154C6.06333 10.8583 5.89331 10.82 5.76793 10.7131C5.64255 10.6061 5.57791 10.4443 5.59513 10.2804L5.85077 7.84699C5.86259 7.7345 5.91219 7.62935 5.99148 7.5487L12.9766 0.443653C12.9872 0.432861 12.9983 0.422556 13.0099 0.412771C13.3677 0.109502 13.861 -0.0231349 14.3226 0.00328464ZM0 1.28989C0 1.01374 0.223858 0.789886 0.5 0.789886H7.84439C8.12053 0.789886 8.34439 1.01374 8.34439 1.28989C8.34439 1.56603 8.12053 1.78989 7.84439 1.78989H1V15H13.9703V8.06826C13.9703 7.79212 14.1942 7.56826 14.4703 7.56826C14.7464 7.56826 14.9703 7.79212 14.9703 8.06826V15.5C14.9703 15.7761 14.7464 16 14.4703 16H0.5C0.223858 16 0 15.7761 0 15.5V1.28989Z" fill="#FF3E5B"/>
</svg>
